<svg xmlns="http://www.w3.org/2000/svg" xmlns:xlink="http://www.w3.org/1999/xlink" width="36" height="36" viewBox="0 0 36 36"><defs><style>.a{fill:#999;}.b{fill:#333;}.c{fill:url(#a);}.d{fill:url(#b);}.e,.f{opacity:0.39;}.e{fill:url(#c);}.f{fill:url(#d);}.g{fill:#ccc;}</style><linearGradient id="a" x1="19.95" y1="23.91" x2="19.95" y2="36.88" gradientUnits="userSpaceOnUse"><stop offset="0" stop-color="#5c5c5c" stop-opacity="0.4"/><stop offset="1" stop-color="#333"/></linearGradient><radialGradient id="b" cx="18.73" cy="18.1" fx="30.00189710454626" r="11.59" gradientUnits="userSpaceOnUse"><stop offset="0" stop-color="#fff"/><stop offset="0.59" stop-color="silver"/><stop offset="1" stop-color="#919191"/></radialGradient><linearGradient id="c" x1="15.31" y1="21.47" x2="24.72" y2="21.47" gradientUnits="userSpaceOnUse"><stop offset="0" stop-color="#5c5c5c"/><stop offset="1" stop-color="#919191"/></linearGradient><linearGradient id="d" x1="25.38" y1="16.5" x2="32.49" y2="16.5" xlink:href="#c"/></defs><rect class="a" width="36" height="36" rx="1"/><rect class="b" x="1.02" y="1.02" width="33.85" height="33.85" rx="1"/><path class="c" d="M3,24.34V36.39a.49.49,0,0,0,.49.49H36.39a.49.49,0,0,0,.49-.49v-9.8C26.32,26.85,12.94,22.55,3,24.34Z" transform="translate(-2 -2)"/><polygon class="d" points="6.98 6.68 13.9 6.68 18.49 22.1 23.56 6.68 30.49 6.68 22.49 29.51 13.32 29.51 6.98 6.68"/><path class="e" d="M20.49,24,16.72,11.43c-.6,5.78,2,15.32-1.41,20.07h9.18l.23-.67a22.58,22.58,0,0,1-4.13-6.64Z" transform="translate(-2 -2)"/><path class="f" d="M32.49,8.68H25.56l-.18.57c.86,3.07,2.3,9.32,1.63,15.07Z" transform="translate(-2 -2)"/><path class="g" d="M27.94,29.92a8.56,8.56,0,0,1,1.17-.08,2.13,2.13,0,0,1,1.32.34,1.08,1.08,0,0,1,.41.86,1.14,1.14,0,0,1-.36.88,2.14,2.14,0,0,1-1.44.46,2.43,2.43,0,0,1-.49,0V34h-.61Zm.61,2a2.35,2.35,0,0,0,.5,0c.74,0,1.18-.31,1.18-.88s-.44-.81-1.11-.81a2.45,2.45,0,0,0-.57,0Z" transform="translate(-2 -2)"/><path class="g" d="M32.63,34V32.24l-1.48-2.37h.69L32.5,31c.18.31.32.56.47.85h0c.14-.27.3-.54.48-.85l.67-1.14h.69l-1.57,2.36V34Z" transform="translate(-2 -2)"/></svg>