<?xml version="1.0" standalone="no"?>
<!DOCTYPE svg PUBLIC "-//W3C//DTD SVG 20010904//EN"
 "http://www.w3.org/TR/2001/REC-SVG-20010904/DTD/svg10.dtd">
<svg version="1.0" xmlns="http://www.w3.org/2000/svg"
 width="40.000000pt" height="40.000000pt" viewBox="0 0 40.000000 40.000000"
 preserveAspectRatio="xMidYMid meet">

<g transform="translate(0.000000,40.000000) scale(0.100000,-0.100000)"
fill="#0096FF" stroke="none">
<path d="M90 335 c-17 -21 -40 -103 -40 -144 0 -20 9 -55 19 -78 32 -69 84
-67 97 4 5 24 14 37 31 44 52 20 -4 50 -64 34 -24 -6 -25 -7 -8 -26 15 -16 16
-23 6 -45 -14 -32 -20 -28 -32 27 -7 28 -6 60 1 96 11 53 29 71 31 33 1 -11 2
-26 3 -32 0 -7 12 -15 25 -16 22 -4 23 -2 17 35 -14 72 -55 105 -86 68z"/>
<path d="M258 339 c-24 -14 -41 -80 -29 -113 6 -14 29 -37 51 -51 34 -21 41
-31 38 -53 -4 -35 -31 -39 -48 -7 -8 16 -22 25 -37 25 -29 0 -29 -4 2 -45 41
-53 105 -53 125 1 14 35 -7 78 -50 106 -29 20 -35 30 -35 58 0 45 32 56 37 13
2 -20 9 -28 23 -28 16 0 19 6 17 30 -7 63 -48 91 -94 64z"/>
</g>
</svg>
